<?xml version="1.0" encoding="utf-8"?>
<!-- Generator: Adobe Illustrator 27.5.0, SVG Export Plug-In . SVG Version: 6.00 Build 0)  -->
<svg version="1.1" id="Layer_1" xmlns="http://www.w3.org/2000/svg" xmlns:xlink="http://www.w3.org/1999/xlink" x="0px" y="0px"
	 viewBox="0 0 1052.6 264" enable-background="new 0 0 1052.6 264" xml:space="preserve">
<g>
	<path fill="#FFFFFF" d="M361.8,156.3h32.1L323,5.1h-0.6l-70.3,151.2l31.5,0c17.5-37.2,19.6-41.9,39.3-84.7
		C342.7,114.9,343.7,117.4,361.8,156.3z"/>
	<path fill="#FFFFFF" d="M74,71.4c3.5,0,13.9-10.4,13.9-26C87.9,24.6,71.1,4.9,44,4.9l-41,0l0,104l30,0L33,91l24.3,0
		c14.4,0,20.2,8.7,20.2,17.3c0,11.6-10.4,18.6-20.2,18.6h-5.9l0,29.3h8.8c31.2,0,47.4-23.1,47.4-45.6C107.5,86.4,88.5,71.4,74,71.4z
		 M46.3,34.4c6.9,0,13.3,6.3,13.3,15c0,8.7-6.9,15-13.9,15H33l0-30L46.3,34.4z"/>
	<path fill="#FFFFFF" d="M459.8,156.5c22.3,0,37.9-9.5,50.7-22.3l-16.7-23.4c-10,9.5-21.7,16.7-35.1,16.7
		c-22.3,0-45.7-20.6-45.7-46.2c0-25.6,22.3-46.8,45.7-46.8c12.8,0,25.1,6.1,34.5,16.2l17.3-23.4c-15.6-14.5-32.3-22.3-51.3-22.3
		c-41.2,0-75.8,34.5-75.8,75.8C383.4,121.9,417.4,156.5,459.8,156.5z"/>
	<path fill="#FFFFFF" d="M635.2,4.9l-34.7,0l-39.2,65.9V4.9l-30.7,0l0,151.4l30.7,0l0-33.4C587.3,83.6,609.7,44.3,635.2,4.9z"/>
	<polygon fill="#FFFFFF" points="183.6,126.9 183.6,156.3 127.4,156.3 127.4,4.9 158,4.9 158,126.9 	"/>
	<path fill="#FFFFFF" d="M715,156.3c41.7,0,76.2-33.9,76.2-75.1c0-42.3-34.5-76.2-76.2-76.2c-41.7,0-75.7,33.9-75.7,76.2
		C639.3,122.3,673.3,156.3,715,156.3z M715,126.8c-25.6,0-46.1-20.6-46.1-46.1c0-25,20.6-46.2,46.1-46.2c25.6,0,46.7,21.1,46.7,46.2
		C761.7,106.2,740.6,126.8,715,126.8z"/>
	<polygon fill="#FFFFFF" points="1050.9,4.9 945.6,4.9 945.6,35 982.7,35 982.7,108.9 1013.3,108.9 1013.3,35 1050.9,35 	"/>
	<path fill="#FFFFFF" d="M868.5,156.3c31.6,0,57-24.3,57-57.6V4.9l-29.9,0l0,93.2c0,16.4-13,28.2-27.1,28.2
		c-14.7,0-27.1-11.8-27.1-28.2l0-45.2l-29.9,0l0,45.8C811.5,132,836.9,156.3,868.5,156.3z"/>
	<g>
		<path fill="#FFFFFF" d="M2.8,246.5l0-51l20.2,0c5.4,0,10.1,1.1,14.2,3.3c4.1,2.2,7.2,5.2,9.5,9c2.3,3.8,3.4,8.2,3.4,13.2
			c0,5-1.1,9.3-3.4,13.2c-2.3,3.8-5.4,6.8-9.5,9c-4.1,2.2-8.8,3.3-14.2,3.3H2.8z M6.5,243.2l16.2,0c4.8,0,9-0.9,12.5-2.8
			c3.5-1.9,6.3-4.5,8.2-7.8c1.9-3.3,2.9-7.1,2.9-11.5c0-4.3-1-8.1-2.9-11.5c-1.9-3.3-4.7-5.9-8.2-7.8c-3.5-1.9-7.7-2.8-12.5-2.8H6.5
			L6.5,243.2z"/>
		<path fill="#FFFFFF" d="M122.4,246.8c-3.8,0-7.2-0.8-10.2-2.5c-2.9-1.7-5.2-3.9-6.9-6.8c-1.7-2.9-2.5-6.2-2.5-10
			c0-3.8,0.8-7.1,2.4-10c1.6-2.9,3.8-5.2,6.5-6.8c2.8-1.6,5.9-2.5,9.3-2.5c3.4,0,6.5,0.8,9.3,2.4c2.7,1.6,4.9,3.8,6.5,6.7
			c1.6,2.9,2.4,6.2,2.4,10c0,0.1,0,0.3,0,0.5c0,0.2,0,0.4,0,0.5l-33.6,0v-2.8l31.6,0l-1.5,1.4c0-3-0.6-5.6-1.9-8
			c-1.3-2.4-3-4.2-5.2-5.5c-2.2-1.3-4.7-2-7.6-2c-2.8,0-5.3,0.7-7.5,2c-2.2,1.3-3.9,3.2-5.2,5.5c-1.3,2.4-1.9,5-1.9,8v0.7
			c0,3.1,0.7,5.9,2.1,8.3c1.4,2.4,3.3,4.3,5.7,5.6c2.4,1.3,5.2,2,8.3,2c2.4,0,4.7-0.4,6.8-1.3c2.1-0.9,3.9-2.2,5.4-4l2.1,2.4
			c-1.7,2-3.7,3.6-6.2,4.6C128,246.3,125.3,246.8,122.4,246.8z"/>
		<path fill="#FFFFFF" d="M205.2,246.8c-3.2,0-6.1-0.5-8.8-1.4c-2.7-0.9-4.9-2.1-6.4-3.5l1.7-2.9c1.5,1.3,3.4,2.3,5.8,3.2
			s5,1.3,7.9,1.3c4,0,6.8-0.7,8.6-2c1.7-1.3,2.6-3,2.6-5.2c0-1.6-0.4-2.8-1.3-3.7c-0.9-0.9-2.1-1.6-3.6-2.1c-1.5-0.5-3.2-0.9-5-1.2
			c-1.8-0.3-3.6-0.7-5.4-1.1c-1.8-0.4-3.4-0.9-5-1.7c-1.5-0.7-2.7-1.7-3.6-3c-0.9-1.3-1.3-3-1.3-5.1c0-1.9,0.5-3.7,1.6-5.2
			c1.1-1.6,2.7-2.8,4.8-3.8c2.1-0.9,4.8-1.4,8-1.4c2.4,0,4.8,0.3,7.2,1c2.4,0.7,4.4,1.6,5.9,2.7l-1.7,2.9c-1.6-1.2-3.4-2.1-5.4-2.6
			c-2-0.5-4-0.8-6-0.8c-3.7,0-6.4,0.7-8.1,2c-1.7,1.4-2.6,3.1-2.6,5.1c0,1.6,0.4,2.9,1.3,3.8c0.9,0.9,2.1,1.7,3.6,2.2
			c1.5,0.5,3.2,0.9,5,1.2c1.8,0.3,3.6,0.7,5.4,1.1c1.8,0.4,3.4,0.9,5,1.6s2.7,1.7,3.6,2.9c0.9,1.2,1.3,2.9,1.3,5
			c0,2.1-0.6,3.9-1.7,5.5c-1.1,1.6-2.8,2.8-5.1,3.6C211.2,246.4,208.4,246.8,205.2,246.8z"/>
		<path fill="#FFFFFF" d="M277.3,199.3c-0.8,0-1.5-0.3-2.1-0.9c-0.6-0.6-0.9-1.3-0.9-2c0-0.8,0.3-1.5,0.9-2.1
			c0.6-0.6,1.3-0.9,2.1-0.9c0.9,0,1.6,0.3,2.1,0.8c0.6,0.6,0.8,1.2,0.8,2.1c0,0.8-0.3,1.5-0.8,2.1
			C278.9,199,278.2,199.3,277.3,199.3z M275.5,246.5v-38h3.6v38H275.5z"/>
		<path fill="#FFFFFF" d="M354.4,245.1c-3.6,0-6.8-0.8-9.6-2.4c-2.8-1.6-5.1-3.8-6.8-6.6c-1.7-2.8-2.5-6-2.5-9.6
			c0-3.6,0.8-6.8,2.5-9.6c1.7-2.8,3.9-4.9,6.8-6.5c2.8-1.6,6.1-2.3,9.6-2.3c3.4,0,6.5,0.7,9.3,2.2c2.7,1.5,4.9,3.6,6.5,6.3
			c1.6,2.7,2.4,6,2.4,9.9c0,3.8-0.8,7.1-2.4,9.8c-1.6,2.8-3.8,4.9-6.5,6.4C361,244.4,357.9,245.1,354.4,245.1z M355.5,260.9
			c-3.4,0-6.7-0.5-9.8-1.6c-3.1-1.1-5.6-2.5-7.6-4.4l2-2.8c1.9,1.7,4.2,3.1,6.8,4.1c2.6,1,5.5,1.5,8.6,1.5c5.1,0,8.8-1.2,11.2-3.6
			c2.4-2.4,3.6-6.1,3.6-11.2v-10.6l0.7-5.7l-0.6-5.7v-12.5h3.5v33.9c0,6.4-1.5,11-4.6,14C366.2,259.4,361.6,260.9,355.5,260.9z
			 M354.7,241.9c3.1,0,5.8-0.6,8.1-1.9c2.3-1.3,4.2-3.1,5.5-5.4c1.3-2.3,2-4.9,2-7.9c0-3-0.7-5.7-2-7.9c-1.3-2.3-3.2-4.1-5.5-5.3
			c-2.3-1.3-5-1.9-8.1-1.9c-3,0-5.6,0.6-8,1.9s-4.2,3-5.5,5.3c-1.3,2.3-2,4.9-2,7.9c0,3,0.7,5.6,2,7.9c1.3,2.3,3.2,4.1,5.5,5.4
			C349.1,241.2,351.8,241.9,354.7,241.9z"/>
		<path fill="#FFFFFF" d="M453,208.2c3.1,0,5.8,0.6,8.1,1.8c2.3,1.2,4.1,3,5.4,5.4c1.3,2.4,1.9,5.4,1.9,8.9v22.2h-3.6v-21.9
			c0-4.3-1.1-7.5-3.2-9.8c-2.2-2.2-5.2-3.3-9.1-3.3c-3,0-5.5,0.6-7.7,1.8c-2.2,1.2-3.8,2.9-5,5.1c-1.1,2.2-1.7,4.8-1.7,7.9v20.2
			h-3.6l0-38h3.5l0,10.6l-0.5-1.2c1.2-3,3.1-5.4,5.8-7.1C445.9,209.1,449.1,208.2,453,208.2z"/>
		<path fill="#FFFFFF" d="M607,246.9c-3.8,0-7.4-0.6-10.7-1.9c-3.4-1.3-6-2.9-7.8-5l1.7-2.8c1.7,1.8,4.1,3.3,7.2,4.6
			c3,1.2,6.2,1.9,9.6,1.9c3.4,0,6.2-0.4,8.3-1.3c2.2-0.9,3.8-2.1,4.8-3.6c1-1.5,1.6-3.2,1.6-5c0-2.2-0.6-3.9-1.7-5.2
			c-1.2-1.3-2.7-2.4-4.6-3.1c-1.9-0.8-4-1.4-6.2-2c-2.2-0.5-4.5-1.1-6.8-1.7c-2.3-0.6-4.4-1.4-6.3-2.4c-1.9-1-3.4-2.3-4.6-4
			c-1.1-1.7-1.7-3.8-1.7-6.5c0-2.4,0.6-4.7,1.9-6.7c1.3-2,3.2-3.7,5.9-5c2.7-1.3,6.1-1.9,10.3-1.9c2.8,0,5.6,0.4,8.3,1.2
			c2.7,0.8,5.1,1.9,7,3.4l-1.4,3c-2.1-1.5-4.4-2.5-6.9-3.2c-2.5-0.7-4.8-1.1-7.1-1.1c-3.3,0-5.9,0.5-8.1,1.4
			c-2.1,0.9-3.7,2.1-4.7,3.7c-1,1.5-1.5,3.2-1.5,5.1c0,2.2,0.6,3.9,1.7,5.2c1.1,1.3,2.7,2.4,4.6,3.1c1.9,0.8,4,1.4,6.3,2
			c2.3,0.5,4.5,1.1,6.8,1.7c2.2,0.6,4.3,1.4,6.2,2.4c1.9,1,3.4,2.3,4.6,3.9c1.2,1.7,1.7,3.8,1.7,6.4c0,2.4-0.7,4.6-2,6.7
			c-1.3,2.1-3.3,3.7-6,5C614.7,246.3,611.3,246.9,607,246.9z"/>
		<path fill="#FFFFFF" d="M675.7,211.6v-3.1l22.7,0v3.1L675.7,211.6z M693,246.8c-3.3,0-5.9-0.9-7.7-2.8c-1.8-1.8-2.7-4.4-2.7-7.6
			l0-36.3h3.6v35.9c0,2.4,0.6,4.3,1.8,5.6c1.2,1.3,3,2,5.2,2c2.4,0,4.3-0.7,5.9-2.1l1.5,2.5c-1,0.9-2.1,1.6-3.5,2
			C695.9,246.6,694.5,246.8,693,246.8z"/>
		<path fill="#FFFFFF" d="M771.5,246.8c-3.3,0-6.1-0.6-8.4-1.8c-2.4-1.2-4.2-3-5.5-5.4c-1.3-2.4-1.9-5.4-1.9-8.9v-22.2h3.6v21.9
			c0,4.3,1.1,7.5,3.3,9.8c2.2,2.2,5.3,3.3,9.2,3.3c2.9,0,5.3-0.6,7.4-1.8c2.1-1.2,3.7-2.9,4.8-5.1c1.1-2.2,1.7-4.8,1.7-7.8v-20.2
			l3.6,0v38h-3.5V236l0.5,1.2c-1.1,3-3,5.3-5.6,7C778.2,245.9,775.1,246.8,771.5,246.8z"/>
		<path fill="#FFFFFF" d="M864.6,246.8c-3.5,0-6.7-0.8-9.6-2.4c-2.8-1.6-5.1-3.9-6.7-6.8c-1.7-2.9-2.5-6.3-2.5-10
			c0-3.8,0.8-7.2,2.5-10.1c1.6-2.9,3.9-5.1,6.7-6.8c2.8-1.6,6-2.4,9.6-2.4c3.3,0,6.4,0.8,9.1,2.3c2.7,1.6,4.8,3.8,6.4,6.6
			c1.6,2.9,2.4,6.3,2.4,10.3c0,3.9-0.8,7.4-2.3,10.3c-1.6,2.9-3.7,5.1-6.4,6.7C871,246,868,246.8,864.6,246.8z M864.8,243.5
			c2.9,0,5.5-0.7,7.8-2c2.3-1.3,4.1-3.2,5.5-5.6c1.3-2.4,2-5.2,2-8.4c0-3.2-0.7-6-2-8.4c-1.3-2.4-3.2-4.3-5.5-5.6
			c-2.3-1.3-4.9-2-7.8-2c-2.9,0-5.5,0.7-7.8,2s-4.1,3.2-5.5,5.6c-1.3,2.4-2,5.2-2,8.4c0,3.2,0.7,5.9,2,8.4c1.3,2.4,3.2,4.3,5.5,5.6
			C859.3,242.9,861.9,243.5,864.8,243.5z M880.2,246.5v-12.5l0.7-6.6l-0.7-6.6v-28.3h3.6v54H880.2z"/>
		<path fill="#FFFFFF" d="M946.1,199.3c-0.8,0-1.5-0.3-2.1-0.9c-0.6-0.6-0.9-1.3-0.9-2c0-0.8,0.3-1.5,0.9-2.1
			c0.6-0.6,1.3-0.9,2.1-0.9c0.9,0,1.6,0.3,2.1,0.8c0.6,0.6,0.8,1.2,0.8,2.1c0,0.8-0.3,1.5-0.8,2.1
			C947.6,199,946.9,199.3,946.1,199.3z M944.2,246.5v-38h3.6v38H944.2z"/>
		<path fill="#FFFFFF" d="M1023.2,246.8c-3.6,0-6.9-0.8-9.7-2.5c-2.8-1.7-5.1-3.9-6.8-6.8c-1.7-2.9-2.5-6.2-2.5-10
			c0-3.8,0.8-7.1,2.5-10c1.7-2.9,3.9-5.2,6.8-6.8c2.8-1.6,6.1-2.5,9.7-2.5s6.9,0.8,9.8,2.5c2.9,1.7,5.1,3.9,6.8,6.8
			c1.6,2.9,2.5,6.2,2.5,10c0,3.7-0.8,7.1-2.5,10c-1.7,2.9-3.9,5.2-6.8,6.8C1030.1,246,1026.9,246.8,1023.2,246.8z M1023.2,243.5
			c2.9,0,5.5-0.7,7.9-2c2.3-1.3,4.2-3.2,5.5-5.6c1.3-2.4,2-5.2,2-8.4c0-3.2-0.7-6-2-8.4c-1.3-2.4-3.1-4.3-5.5-5.6
			c-2.3-1.3-5-2-7.9-2c-2.9,0-5.5,0.7-7.8,2c-2.3,1.3-4.1,3.2-5.5,5.6c-1.3,2.4-2,5.2-2,8.4c0,3.2,0.7,5.9,2,8.4
			c1.3,2.4,3.2,4.3,5.5,5.6C1017.7,242.9,1020.3,243.5,1023.2,243.5z"/>
	</g>
	<g>
		<polygon fill="#6B6C6C" points="323.3,110.4 334,133.4 344.7,156.3 323.3,156.3 301.3,156.3 312.6,133.4 		"/>
		<rect x="2.9" y="127" fill="#6B6C6C" width="30.4" height="29.3"/>
		<path fill="#6B6C6C" d="M459.1,60.4c11.2,0,20.2,9.1,20.2,20.3c0,11.2-9.1,20.2-20.2,20.2c-11.2,0-20.2-9.1-20.2-20.2
			C438.8,69.5,447.9,60.4,459.1,60.4z"/>
		<path fill="#6B6C6C" d="M715.3,60.4c11.2,0,20.2,9.1,20.2,20.3c0,11.2-9.1,20.2-20.2,20.2c-11.2,0-20.2-9.1-20.2-20.2
			C695.1,69.5,704.1,60.4,715.3,60.4z"/>
		<polygon fill="#6B6C6C" points="574.4,156.3 605.1,100.9 635.2,156.3 		"/>
		<rect x="201.6" y="127" fill="#6B6C6C" width="30.4" height="29.3"/>
		<rect x="811.3" y="5.1" fill="#6B6C6C" width="30" height="29.8"/>
		<rect x="982.9" y="127" fill="#6B6C6C" width="30.7" height="29.3"/>
	</g>
</g>
</svg>
